<?xml version="1.0" encoding="utf-8"?>
<!-- Generator: Adobe Illustrator 27.6.1, SVG Export Plug-In . SVG Version: 6.00 Build 0)  -->
<svg version="1.1" id="Layer_1" xmlns="http://www.w3.org/2000/svg" xmlns:xlink="http://www.w3.org/1999/xlink" x="0px" y="0px"
	 viewBox="0 0 512 512" style="enable-background:new 0 0 512 512;" xml:space="preserve">
<style type="text/css">
	.st0{fill:oklch(54.6% 0.245 262.881);}
	.st1{fill:oklch(96.8% 0.007 247.896);}
</style>
<g>
	<path class="st0" d="M462,512H50c-27.61,0-50-22.39-50-50V50C0,22.39,22.39,0,50,0h412c27.61,0,50,22.39,50,50v412
		C512,489.61,489.61,512,462,512z"/>
</g>
<path class="st1" d="M48.77,314.2c0-38.4,9.83-69.54,29.49-93.44c19.66-23.9,45.25-35.85,76.76-35.85
	c24.48,0,51.82,8.51,82.03,25.51l57.42,32.18c29.16,16.75,51.69,25.12,67.58,25.12c29.94,0,45.96-23.3,48.05-69.92h53.12
	c0,38.4-9.83,69.55-29.49,93.45c-19.67,23.9-45.25,35.85-76.76,35.85c-24.48,0-51.83-8.5-82.03-25.51l-57.42-32.18
	c-29.17-16.74-51.7-25.12-67.58-25.12c-29.95,0-45.97,23.31-48.05,69.92H48.77z"/>
</svg>
